<svg width="145" height="32" viewBox="0 0 145 32" fill="none" xmlns="http://www.w3.org/2000/svg">
<path d="M8.88424 26.3184C6.40047 26.3184 4.39435 25.5224 2.86588 23.9302C1.33741 22.338 0.573176 20.4805 0.573176 18.3576C0.573176 15.9376 1.35864 14.0164 2.92957 12.594C4.5005 11.1505 6.41109 10.4181 8.66133 10.3969C10.6356 10.3756 12.2808 10.8108 13.597 11.7024C14.9344 12.594 15.6031 13.8041 15.6031 15.3325C15.6031 15.927 15.3908 16.4258 14.9663 16.8292C14.5417 17.2113 13.8836 17.3811 12.992 17.3387C12.3339 17.2962 11.7607 17.0839 11.2725 16.7018C10.7842 16.3197 10.4021 15.8845 10.1261 15.3962C9.87137 14.8867 9.63786 14.3773 9.42557 13.8678C9.21328 13.3583 8.96915 12.9337 8.69318 12.594C8.4172 12.2544 8.09877 12.0952 7.73788 12.1164C7.24962 12.1376 6.84627 12.4348 6.52784 13.008C6.23064 13.5812 6.08204 14.2923 6.08204 15.1415C6.08204 17.1795 6.52784 18.8141 7.41945 20.0453C8.33229 21.2766 9.54233 21.8922 11.0496 21.8922C12.3445 21.8922 13.4484 21.3721 14.3613 20.3319C14.5948 20.0772 14.8601 19.9923 15.1573 20.0772C15.4758 20.1621 15.635 20.385 15.635 20.7459C15.635 22.2956 15.0512 23.6118 13.8836 24.6944C12.716 25.7771 11.0496 26.3184 8.88424 26.3184ZM25.6589 26.3184C23.26 26.3184 21.1796 25.5754 19.4176 24.0894C17.6556 22.5822 16.7746 20.6716 16.7746 18.3576C16.7746 16.0437 17.6556 14.1437 19.4176 12.6577C21.1796 11.1505 23.26 10.3969 25.6589 10.3969C28.0789 10.3969 30.1593 11.1505 31.9001 12.6577C33.6409 14.1437 34.5112 16.0437 34.5112 18.3576C34.5112 20.6716 33.6409 22.5822 31.9001 24.0894C30.1593 25.5754 28.0789 26.3184 25.6589 26.3184ZM26.4231 24.5989C27.0175 24.5989 27.4102 24.3335 27.6013 23.8028C27.7923 23.2509 27.8879 22.4017 27.8879 21.2554C27.8879 20.4911 27.7817 19.4509 27.5694 18.1347C27.3784 16.7973 27.0069 15.4599 26.4549 14.1225C25.9242 12.7851 25.298 12.1164 24.5762 12.1164C24.003 12.1164 23.6209 12.3818 23.4298 12.9125C23.2388 13.4432 23.1432 14.3136 23.1432 15.5236C23.1432 16.3728 23.2388 17.466 23.4298 18.8035C23.6421 20.1196 24.0136 21.4146 24.5443 22.6883C25.0963 23.962 25.7225 24.5989 26.4231 24.5989ZM44.5346 26.3184C42.1358 26.3184 40.0553 25.5754 38.2934 24.0894C36.5314 22.5822 35.6504 20.6716 35.6504 18.3576C35.6504 16.0437 36.5314 14.1437 38.2934 12.6577C40.0553 11.1505 42.1358 10.3969 44.5346 10.3969C46.9547 10.3969 49.0351 11.1505 50.7759 12.6577C52.5166 14.1437 53.387 16.0437 53.387 18.3576C53.387 20.6716 52.5166 22.5822 50.7759 24.0894C49.0351 25.5754 46.9547 26.3184 44.5346 26.3184ZM45.2988 24.5989C45.8933 24.5989 46.286 24.3335 46.477 23.8028C46.6681 23.2509 46.7636 22.4017 46.7636 21.2554C46.7636 20.4911 46.6575 19.4509 46.4452 18.1347C46.2541 16.7973 45.8826 15.4599 45.3307 14.1225C44.8 12.7851 44.1737 12.1164 43.4519 12.1164C42.8788 12.1164 42.4967 12.3818 42.3056 12.9125C42.1145 13.4432 42.019 14.3136 42.019 15.5236C42.019 16.3728 42.1145 17.466 42.3056 18.8035C42.5179 20.1196 42.8894 21.4146 43.4201 22.6883C43.9721 23.962 44.5983 24.5989 45.2988 24.5989ZM72.2628 23.1023C72.3477 23.2296 72.6767 23.5162 73.2499 23.962C73.8443 24.4078 74.1415 24.8218 74.1415 25.2039V25.3313C74.1415 25.7771 73.8762 26 73.3454 26H66.0215C65.4908 26 65.2254 25.7665 65.2254 25.2995V25.1721C65.2254 24.8961 65.3847 24.5564 65.7031 24.1531C66.0215 23.7498 66.0852 23.3995 65.8941 23.1023L63.6333 19.4085L62.264 20.6822V22.1788C62.264 22.752 62.5082 23.3358 62.9964 23.9302C63.4847 24.5034 63.7288 24.9279 63.7288 25.2039V25.3313C63.7288 25.7771 63.4635 26 62.9327 26H55.2585C54.7278 26 54.4625 25.7771 54.4625 25.3313V25.2039C54.4625 24.9279 54.6747 24.5034 55.0993 23.9302C55.5451 23.3358 55.768 22.752 55.768 22.1788V8.51812C55.768 7.94494 55.4921 7.38238 54.9401 6.83043C54.4094 6.25725 54.144 5.85391 54.144 5.62039V5.49302C54.144 5.21705 54.4094 4.95169 54.9401 4.69694L60.7037 2.02212C61.1707 1.83106 61.5422 1.82044 61.8182 1.99028C62.1154 2.1601 62.264 2.41485 62.264 2.75451V17.6253L65.9897 14.4728C66.2444 14.303 66.3399 14.0801 66.2763 13.8041C66.2338 13.5069 66.1277 13.2521 65.9578 13.0398C65.788 12.8276 65.6076 12.5728 65.4165 12.2756C65.2467 11.9784 65.1618 11.7343 65.1618 11.5432V11.4158C65.1618 10.9488 65.4271 10.7153 65.9578 10.7153H71.3712C71.9019 10.7153 72.1672 10.9382 72.1672 11.384V11.5114C72.1672 11.8086 72.008 12.1058 71.6896 12.403C71.3712 12.679 70.9147 13.0186 70.3203 13.422C69.7472 13.8041 69.3014 14.1437 68.9829 14.4409L67.3908 15.9376L72.2628 23.1023ZM96.925 22.5609C97.5831 22.5609 97.9122 22.8051 97.9122 23.2933V23.5481C97.9122 24.1637 97.4239 24.7793 96.4474 25.395C95.4921 26.0106 94.4307 26.3184 93.2631 26.3184C91.5435 26.3184 90.1212 25.8089 88.9961 24.79C87.2978 25.8089 85.3872 26.3184 83.2643 26.3184C80.2498 26.3184 77.9571 25.7453 76.3862 24.5989C74.8365 23.4313 74.0617 21.9241 74.0617 20.0772C74.0617 17.6359 75.6432 15.5555 78.8063 13.8359C77.4264 12.1801 76.7365 10.5455 76.7365 8.93208C76.7365 7.27624 77.3627 5.89637 78.6152 4.79247C79.889 3.66735 81.7677 3.10478 84.2515 3.10478C85.3766 3.10478 86.3637 3.23216 87.2129 3.4869C88.062 3.74165 88.7201 4.06008 89.1872 4.4422C89.6754 4.80308 90.0681 5.22766 90.3653 5.71592C90.6626 6.18295 90.8536 6.60753 90.9385 6.98965C91.0234 7.37176 91.0659 7.73265 91.0659 8.07231C91.0659 9.43095 90.5776 10.5667 89.6011 11.4795C88.6458 12.3924 87.5207 13.0717 86.2257 13.5175L90.6519 18.0074C91.4162 16.0968 91.7983 13.9739 91.7983 11.6387C91.7983 11.0019 92.1273 10.5561 92.7854 10.3013C93.4435 10.0254 94.091 10.0254 94.7279 10.3013C95.3859 10.5561 95.715 11.0125 95.715 11.6706C95.715 14.8974 94.8765 17.8694 93.1994 20.5867C94.5793 21.9028 95.5346 22.5609 96.0653 22.5609H96.925ZM84.0922 5.39749C83.6889 5.39749 83.3599 5.57793 83.1051 5.93882C82.8716 6.27848 82.7548 6.69244 82.7548 7.18071C82.7548 8.73041 83.19 10.0784 84.0604 11.2248C84.5062 10.8214 84.8671 10.3119 85.1431 9.69631C85.419 9.05945 85.557 8.48627 85.557 7.97678C85.557 7.44607 85.5358 7.0321 85.4933 6.7349C85.4721 6.4377 85.3447 6.1405 85.1112 5.84329C84.8777 5.54609 84.5381 5.39749 84.0922 5.39749ZM80.9398 20.2045C80.9398 21.2235 81.2158 22.0939 81.7677 22.8157C82.3409 23.5162 83.2219 23.8665 84.4107 23.8665C85.2811 23.8665 86.1833 23.5268 87.1173 22.8475L81.6085 16.9247C81.1627 18.0498 80.9398 19.1431 80.9398 20.2045ZM111.806 20.8414C112.039 20.5867 112.305 20.5124 112.602 20.6185C112.899 20.7247 113.048 20.9582 113.048 21.3191C113.048 22.3805 112.443 23.4844 111.233 24.6307C110.044 25.7559 108.494 26.3184 106.584 26.3184C104.206 26.3184 102.274 25.5754 100.788 24.0894C99.3235 22.6034 98.5911 20.661 98.5911 18.2621C98.5911 15.9482 99.3659 14.0588 100.916 12.594C102.487 11.1293 104.344 10.3969 106.488 10.3969C108.441 10.3969 109.948 10.8321 111.01 11.7024C112.093 12.5728 112.634 13.5493 112.634 14.632C112.634 15.4175 112.273 16.0437 111.551 16.5107L105.788 20.2682C106.616 21.3297 107.677 21.8604 108.972 21.8604C110.182 21.8604 111.127 21.5207 111.806 20.8414ZM105.979 12.1164C105.469 12.1164 105.055 12.3711 104.737 12.8806C104.44 13.3901 104.291 13.9951 104.291 14.6957C104.291 16.1392 104.482 17.4024 104.864 18.485L106.902 16.9884C107.454 16.585 107.73 16.0013 107.73 15.237C107.73 14.961 107.709 14.6745 107.666 14.3773C107.624 14.0588 107.539 13.7192 107.412 13.3583C107.305 12.9974 107.125 12.7002 106.87 12.4667C106.616 12.2332 106.318 12.1164 105.979 12.1164ZM129.871 22.2744C129.934 22.8051 130.051 23.2403 130.221 23.5799C130.412 23.8984 130.593 24.1106 130.762 24.2168C130.932 24.3017 131.081 24.4185 131.208 24.5671C131.357 24.6944 131.431 24.8536 131.431 25.0447C131.431 25.8089 130.104 26.1911 127.451 26.1911C125.519 26.1911 124.426 25.724 124.171 24.79C123.343 25.8089 122.037 26.3184 120.254 26.3184C118.471 26.3184 117.017 25.9151 115.892 25.1084C114.766 24.2805 114.204 23.0704 114.204 21.4783C114.204 19.9286 114.756 18.7292 115.86 17.88C116.964 17.0096 118.312 16.5744 119.904 16.5744C121.114 16.5744 122.133 16.8079 122.961 17.275C122.706 14.8337 122.494 13.3901 122.324 12.9443C122.09 12.3499 121.687 12.0527 121.114 12.0527C120.711 12.0527 120.381 12.2862 120.127 12.7533C119.872 13.1991 119.681 13.7085 119.554 14.2817C119.447 14.8337 119.182 15.3432 118.757 15.8102C118.333 16.256 117.77 16.4789 117.07 16.4789C116.327 16.4789 115.722 16.2666 115.255 15.842C114.788 15.4175 114.554 14.8655 114.554 14.1862C114.554 13.2946 114.883 12.5516 115.541 11.9572C116.221 11.3628 117.027 10.9594 117.961 10.7471C118.917 10.5136 119.968 10.3969 121.114 10.3969C123.3 10.3969 125.115 10.9807 126.559 12.1482C128.024 13.2946 128.884 14.8337 129.138 16.7655L129.871 22.2744ZM122.292 24.5352C122.674 24.5352 122.971 24.3123 123.184 23.8665C123.396 23.4207 123.481 22.9537 123.438 22.4654L123.311 20.9688C123.099 19.2705 122.579 18.4213 121.751 18.4213C121.432 18.4213 121.167 18.5912 120.955 18.9308C120.764 19.2705 120.668 19.7057 120.668 20.2364C120.668 21.4464 120.806 22.4654 121.082 23.2933C121.379 24.1213 121.783 24.5352 122.292 24.5352ZM138.744 26.3184C137.067 26.3184 135.73 25.7877 134.732 24.7263C133.756 23.6436 133.267 22.1151 133.267 20.1409V13.1035H132.312C132.078 13.1035 131.887 13.0292 131.739 12.8806C131.59 12.7108 131.516 12.5197 131.516 12.3075V11.5114C131.516 10.9807 131.781 10.7153 132.312 10.7153H132.758C133.798 10.7153 134.711 10.4181 135.496 9.82369C136.282 9.22928 136.791 8.44382 137.025 7.46729C137.173 6.87289 137.492 6.57569 137.98 6.57569H138.84C139.116 6.57569 139.339 6.6606 139.509 6.83043C139.678 6.97903 139.763 7.19132 139.763 7.46729V10.7153H142.757C142.99 10.7153 143.181 10.7896 143.33 10.9382C143.478 11.0868 143.553 11.2779 143.553 11.5114V12.3075C143.553 12.5197 143.478 12.7108 143.33 12.8806C143.181 13.0292 142.99 13.1035 142.757 13.1035H139.763V20.2682C139.763 20.714 139.88 21.0749 140.114 21.3509C140.368 21.6056 140.687 21.733 141.069 21.733C141.833 21.733 142.502 21.3934 143.075 20.714C143.33 20.4381 143.606 20.3425 143.903 20.4275C144.2 20.4911 144.349 20.6822 144.349 21.0006C144.349 22.4017 143.85 23.6436 142.852 24.7263C141.854 25.7877 140.485 26.3184 138.744 26.3184Z" fill="#0E1217"/>
</svg>
