<svg width="127" height="43" viewBox="0 0 127 43" fill="none" xmlns="http://www.w3.org/2000/svg">
<path d="M19.24 14.44V33.92C19.24 35.0667 19.1067 36.1733 18.84 37.24C18.5733 38.3333 18.1067 39.2933 17.44 40.12C16.8 40.9467 15.9067 41.6 14.76 42.08C13.6133 42.5867 12.16 42.84 10.4 42.84C9.30667 42.84 8.28 42.72 7.32 42.48C6.36 42.2667 5.52 41.9067 4.8 41.4C4.08 40.92 3.49333 40.2667 3.04 39.44C2.61333 38.64 2.37333 37.64 2.32 36.44H3.84C3.92 37.3467 4.14667 38.12 4.52 38.76C4.89333 39.4 5.37333 39.92 5.96 40.32C6.57333 40.7467 7.25333 41.0533 8 41.24C8.74667 41.4267 9.54667 41.52 10.4 41.52C11.8133 41.52 12.9867 41.3067 13.92 40.88C14.88 40.4533 15.64 39.8933 16.2 39.2C16.76 38.5333 17.1467 37.76 17.36 36.88C17.6 36.0267 17.72 35.16 17.72 34.28V29.56H17.64C16.92 31.08 15.9333 32.24 14.68 33.04C13.4533 33.84 11.96 34.24 10.2 34.24C8.68 34.24 7.36 33.9867 6.24 33.48C5.14667 32.9467 4.22667 32.2267 3.48 31.32C2.76 30.3867 2.21333 29.3067 1.84 28.08C1.49333 26.8533 1.32 25.52 1.32 24.08C1.32 22.72 1.50667 21.4267 1.88 20.2C2.28 18.9733 2.85333 17.9067 3.6 17C4.34667 16.0667 5.26667 15.3333 6.36 14.8C7.48 14.24 8.76 13.96 10.2 13.96C11.8267 13.96 13.32 14.3733 14.68 15.2C16.0667 16.0267 17.0533 17.2 17.64 18.72H17.72V14.44H19.24ZM10.2 15.28C8.94667 15.28 7.85333 15.5333 6.92 16.04C6.01333 16.5467 5.25333 17.2133 4.64 18.04C4.05333 18.8667 3.6 19.8133 3.28 20.88C2.98667 21.92 2.84 22.9867 2.84 24.08C2.84 25.28 2.98667 26.4267 3.28 27.52C3.6 28.5867 4.06667 29.52 4.68 30.32C5.32 31.12 6.09333 31.76 7 32.24C7.93333 32.6933 9 32.92 10.2 32.92C11.4533 32.92 12.5467 32.68 13.48 32.2C14.4133 31.72 15.1867 31.0667 15.8 30.24C16.44 29.4133 16.9067 28.48 17.2 27.44C17.52 26.3733 17.68 25.2533 17.68 24.08C17.68 22.9333 17.52 21.8267 17.2 20.76C16.9067 19.6933 16.44 18.76 15.8 17.96C15.1867 17.1333 14.4133 16.48 13.48 16C12.5467 15.52 11.4533 15.28 10.2 15.28ZM25.2444 19H25.3644C25.551 18.3333 25.8844 17.7067 26.3644 17.12C26.871 16.5333 27.471 16.0267 28.1644 15.6C28.8844 15.1733 29.671 14.8533 30.5244 14.64C31.4044 14.4 32.311 14.2933 33.2444 14.32V15.84C32.4444 15.7333 31.5244 15.8133 30.4844 16.08C29.471 16.3467 28.4977 16.9333 27.5644 17.84C27.191 18.24 26.8577 18.6267 26.5644 19C26.2977 19.3733 26.071 19.7867 25.8844 20.24C25.6977 20.6933 25.551 21.2 25.4444 21.76C25.3377 22.32 25.271 22.9867 25.2444 23.76V35H23.7244V14.44H25.2444V19Z" fill="#0B0B0B"/>
<path d="M48.5 4.98438L49.2059 15.2439L52.8669 5.59261L50.5605 15.6292L56.8799 7.36805L51.7481 16.3686L60.2141 10.1669L52.6726 17.4022L62.5993 13.7623L53.2591 18.6463L63.8422 17.8631L53.46 20L63.8422 22.1369L53.2591 21.3537L62.5993 26.2377L52.6726 22.5978L60.2141 29.8331L51.7481 23.6314L56.8799 32.6319L50.5605 24.3708L52.8669 34.4074L49.2059 24.7561L48.5 35.0156L47.7941 24.7561L44.1331 34.4074L46.4395 24.3708L40.1201 32.6319L45.2519 23.6314L36.7859 29.8331L44.3274 22.5978L34.4007 26.2377L43.7409 21.3537L33.1578 22.1369L43.54 20L33.1578 17.8631L43.7409 18.6463L34.4007 13.7623L44.3274 17.4022L36.7859 10.1669L45.2519 16.3686L40.1201 7.36805L46.4395 15.6292L44.1331 5.59261L47.7941 15.2439L48.5 4.98438Z" fill="#487B6E"/>
<path d="M81.72 20.8C81.64 19.8933 81.4 19.0933 81 18.4C80.6267 17.7067 80.1333 17.1333 79.52 16.68C78.9067 16.2267 78.1867 15.88 77.36 15.64C76.56 15.4 75.6933 15.28 74.76 15.28C73.48 15.28 72.3467 15.5467 71.36 16.08C70.3733 16.5867 69.5467 17.28 68.88 18.16C68.2133 19.0133 67.7067 20 67.36 21.12C67.0133 22.2133 66.84 23.3467 66.84 24.52C66.84 25.9067 67 27.1867 67.32 28.36C67.64 29.5333 68.1333 30.56 68.8 31.44C69.4667 32.2933 70.2933 32.96 71.28 33.44C72.2667 33.92 73.4267 34.16 74.76 34.16C75.72 34.16 76.6 34 77.4 33.68C78.2267 33.36 78.9467 32.92 79.56 32.36C80.2 31.8 80.72 31.1333 81.12 30.36C81.52 29.56 81.7867 28.6933 81.92 27.76H83.44C83.28 28.9867 82.9467 30.08 82.44 31.04C81.9333 32 81.2933 32.8133 80.52 33.48C79.7467 34.12 78.8667 34.6133 77.88 34.96C76.8933 35.3067 75.8533 35.48 74.76 35.48C73.08 35.48 71.64 35.1867 70.44 34.6C69.2667 33.9867 68.2933 33.1733 67.52 32.16C66.7733 31.1467 66.2133 29.9867 65.84 28.68C65.4933 27.3467 65.32 25.96 65.32 24.52C65.32 23.08 65.52 21.72 65.92 20.44C66.3467 19.16 66.96 18.04 67.76 17.08C68.56 16.12 69.5467 15.36 70.72 14.8C71.8933 14.24 73.24 13.96 74.76 13.96C75.88 13.96 76.92 14.1067 77.88 14.4C78.8667 14.6667 79.7333 15.08 80.48 15.64C81.2533 16.2 81.88 16.92 82.36 17.8C82.84 18.6533 83.1333 19.6533 83.24 20.8H81.72ZM87.5822 24.92V25.16C87.5822 26.36 87.7422 27.5067 88.0622 28.6C88.3822 29.6933 88.8489 30.6533 89.4622 31.48C90.1022 32.3067 90.8889 32.96 91.8222 33.44C92.7822 33.92 93.8889 34.16 95.1422 34.16C97.1955 34.16 98.8222 33.6267 100.022 32.56C101.222 31.4667 102.049 29.96 102.502 28.04H104.022C103.569 30.44 102.582 32.28 101.062 33.56C99.5689 34.84 97.5822 35.48 95.1022 35.48C93.5822 35.48 92.2489 35.2133 91.1022 34.68C89.9822 34.12 89.0355 33.3733 88.2622 32.44C87.5155 31.48 86.9555 30.36 86.5822 29.08C86.2089 27.7733 86.0222 26.3733 86.0222 24.88C86.0222 23.44 86.2089 22.0667 86.5822 20.76C86.9822 19.4267 87.5689 18.2667 88.3422 17.28C89.1155 16.2667 90.0755 15.4667 91.2222 14.88C92.3955 14.2667 93.7689 13.96 95.3422 13.96C96.7822 13.96 98.0489 14.2267 99.1422 14.76C100.262 15.2933 101.196 16.0267 101.942 16.96C102.689 17.8667 103.249 18.9333 103.622 20.16C104.022 21.36 104.222 22.6533 104.222 24.04C104.222 24.1733 104.209 24.3333 104.182 24.52C104.182 24.68 104.182 24.8133 104.182 24.92H87.5822ZM102.662 23.6C102.609 22.48 102.422 21.4267 102.102 20.44C101.782 19.4267 101.302 18.5467 100.662 17.8C100.049 17.0267 99.2889 16.4133 98.3822 15.96C97.5022 15.5067 96.4889 15.28 95.3422 15.28C94.1155 15.28 93.0355 15.52 92.1022 16C91.1689 16.4533 90.3822 17.0667 89.7422 17.84C89.1022 18.5867 88.6089 19.4667 88.2622 20.48C87.9155 21.4933 87.7022 22.5333 87.6222 23.6H102.662ZM108.324 24.92V25.16C108.324 26.36 108.484 27.5067 108.804 28.6C109.124 29.6933 109.591 30.6533 110.204 31.48C110.844 32.3067 111.631 32.96 112.564 33.44C113.524 33.92 114.631 34.16 115.884 34.16C117.938 34.16 119.564 33.6267 120.764 32.56C121.964 31.4667 122.791 29.96 123.244 28.04H124.764C124.311 30.44 123.324 32.28 121.804 33.56C120.311 34.84 118.324 35.48 115.844 35.48C114.324 35.48 112.991 35.2133 111.844 34.68C110.724 34.12 109.778 33.3733 109.004 32.44C108.258 31.48 107.698 30.36 107.324 29.08C106.951 27.7733 106.764 26.3733 106.764 24.88C106.764 23.44 106.951 22.0667 107.324 20.76C107.724 19.4267 108.311 18.2667 109.084 17.28C109.858 16.2667 110.818 15.4667 111.964 14.88C113.138 14.2667 114.511 13.96 116.084 13.96C117.524 13.96 118.791 14.2267 119.884 14.76C121.004 15.2933 121.938 16.0267 122.684 16.96C123.431 17.8667 123.991 18.9333 124.364 20.16C124.764 21.36 124.964 22.6533 124.964 24.04C124.964 24.1733 124.951 24.3333 124.924 24.52C124.924 24.68 124.924 24.8133 124.924 24.92H108.324ZM123.404 23.6C123.351 22.48 123.164 21.4267 122.844 20.44C122.524 19.4267 122.044 18.5467 121.404 17.8C120.791 17.0267 120.031 16.4133 119.124 15.96C118.244 15.5067 117.231 15.28 116.084 15.28C114.858 15.28 113.778 15.52 112.844 16C111.911 16.4533 111.124 17.0667 110.484 17.84C109.844 18.5867 109.351 19.4667 109.004 20.48C108.658 21.4933 108.444 22.5333 108.364 23.6H123.404Z" fill="#0B0B0B"/>
</svg>
