<svg width="86" height="30" viewBox="0 0 86 30" fill="none" xmlns="http://www.w3.org/2000/svg">
<path d="M13.0293 6.58586V20.1766C13.0293 20.9766 12.9391 21.7486 12.7585 22.4928C12.5779 23.2556 12.2619 23.9254 11.8104 24.5021C11.3771 25.0789 10.7721 25.5347 9.99563 25.8696C9.21913 26.2231 8.235 26.3998 7.04319 26.3998C6.30283 26.3998 5.6076 26.3161 4.95752 26.1487C4.30744 25.9998 3.73863 25.7487 3.25107 25.3952C2.76351 25.0603 2.36623 24.6045 2.05926 24.0277C1.77033 23.4696 1.60781 22.7719 1.5717 21.9347H2.60099C2.65516 22.5673 2.80865 23.1068 3.06146 23.5533C3.31427 23.9998 3.63931 24.3626 4.03658 24.6417C4.4519 24.9394 4.91238 25.1533 5.418 25.2835C5.92361 25.4138 6.46535 25.4789 7.04319 25.4789C8.00023 25.4789 8.79482 25.3301 9.42682 25.0324C10.0769 24.7347 10.5915 24.344 10.9708 23.8603C11.35 23.3951 11.6118 22.8556 11.7563 22.2417C11.9188 21.6463 12 21.0417 12 20.4277V17.1347H11.9459C11.4583 18.1952 10.7902 19.0045 9.94146 19.5626C9.11078 20.1207 8.09957 20.3998 6.90776 20.3998C5.87847 20.3998 4.98461 20.2231 4.22618 19.8696C3.48582 19.4975 2.86283 18.9952 2.35721 18.3626C1.86965 17.7115 1.49946 16.958 1.24666 16.1021C1.0119 15.2463 0.894531 14.3161 0.894531 13.3114C0.894531 12.3626 1.02094 11.4603 1.27374 10.6045C1.54461 9.74863 1.93285 9.00449 2.43847 8.37191C2.94409 7.72077 3.56708 7.20909 4.30744 6.83702C5.06587 6.44633 5.93264 6.25098 6.90776 6.25098C8.0093 6.25098 9.02052 6.53933 9.94146 7.11609C10.8805 7.69286 11.5486 8.51144 11.9459 9.57191H12V6.58586H13.0293ZM6.90776 7.17191C6.05905 7.17191 5.31868 7.34863 4.68666 7.70214C4.07269 8.05565 3.55805 8.52072 3.14272 9.09749C2.74545 9.67426 2.43847 10.3347 2.22178 11.0789C2.02314 11.8045 1.92382 12.5487 1.92382 13.3114C1.92382 14.1487 2.02314 14.9487 2.22178 15.7114C2.43847 16.4557 2.75448 17.1068 3.16981 17.6649C3.60319 18.2231 4.12686 18.6696 4.74083 19.0045C5.37285 19.3207 6.09516 19.4789 6.90776 19.4789C7.75645 19.4789 8.49686 19.3114 9.12886 18.9766C9.76086 18.6417 10.2846 18.1859 10.6999 17.6091C11.1333 17.0323 11.4493 16.3812 11.6479 15.6556C11.8646 14.9114 11.973 14.13 11.973 13.3114C11.973 12.5114 11.8646 11.7394 11.6479 10.9952C11.4493 10.251 11.1333 9.59981 10.6999 9.04167C10.2846 8.46491 9.76086 8.00912 9.12886 7.67423C8.49686 7.33935 7.75645 7.17191 6.90776 7.17191ZM17.0953 9.76726H17.1766C17.3029 9.30212 17.5287 8.86495 17.8537 8.45563C18.1968 8.0463 18.6031 7.69286 19.0726 7.39516C19.5602 7.09747 20.0928 6.87421 20.6707 6.7254C21.2666 6.55795 21.8806 6.48351 22.5126 6.50214V7.5626C21.9709 7.48816 21.3479 7.54398 20.6437 7.73005C19.9574 7.91612 19.2983 8.32537 18.6663 8.95795C18.4135 9.23702 18.1878 9.50681 17.9892 9.76726C17.8086 10.0277 17.6551 10.3161 17.5287 10.6324C17.4023 10.9486 17.3029 11.3021 17.2307 11.6928C17.1585 12.0835 17.1133 12.5487 17.0953 13.0882V20.93H16.066V6.58586H17.0953V9.76726Z" fill="white"/>
<path d="M32.7359 2.79102L33.2139 9.94882L35.693 3.21536L34.1312 10.2176L38.4105 4.45404L34.9354 10.7335L40.6683 6.40673L35.5614 11.4546L42.2834 8.91515L35.9586 12.3226L43.1251 11.7762L36.0946 13.267L43.1251 14.7579L35.9586 14.2115L42.2834 17.6189L35.5614 15.0794L40.6683 20.1273L34.9354 15.8006L38.4105 22.08L34.1312 16.3164L35.693 23.3187L33.2139 16.5852L32.7359 23.743L32.2579 16.5852L29.7788 23.3187L31.3406 16.3164L27.0613 22.08L30.5364 15.8006L24.8035 20.1273L29.9103 15.0794L23.1883 17.6189L29.5132 14.2115L22.3467 14.7579L29.3771 13.267L22.3467 11.7762L29.5132 12.3226L23.1883 8.91515L29.9103 11.4546L24.8035 6.40673L30.5364 10.7335L27.0613 4.45404L31.3406 10.2176L29.7788 3.21536L32.2579 9.94882L32.7359 2.79102Z" fill="#487B6E"/>
<path d="M55.3379 11.0231C55.2838 10.3905 55.1212 9.83235 54.8504 9.34865C54.5976 8.86495 54.2635 8.46491 53.8482 8.14865C53.4329 7.8324 52.9453 7.59051 52.3855 7.42307C51.8438 7.25563 51.2569 7.17191 50.6249 7.17191C49.7581 7.17191 48.9907 7.35798 48.3225 7.73005C47.6543 8.08356 47.0946 8.56726 46.6431 9.18121C46.1917 9.77653 45.8486 10.4649 45.6138 11.2463C45.3791 12.0091 45.2617 12.7998 45.2617 13.6184C45.2617 14.5859 45.3701 15.4789 45.5868 16.2975C45.8034 17.1161 46.1375 17.8324 46.589 18.4463C47.0404 19.0417 47.6002 19.5068 48.2683 19.8417C48.9365 20.1766 49.722 20.344 50.6249 20.344C51.2749 20.344 51.8708 20.2324 52.4126 20.0091C52.9724 19.7859 53.4599 19.4789 53.8753 19.0882C54.3086 18.6975 54.6608 18.2324 54.9316 17.6928C55.2025 17.1347 55.3831 16.53 55.4734 15.8789H56.5027C56.3943 16.7347 56.1686 17.4975 55.8255 18.1673C55.4824 18.837 55.049 19.4044 54.5253 19.8696C54.0017 20.3161 53.4058 20.6603 52.7376 20.9021C52.0695 21.144 51.3652 21.2649 50.6249 21.2649C49.4872 21.2649 48.5121 21.0603 47.6995 20.651C46.905 20.2231 46.2458 19.6556 45.7222 18.9487C45.2165 18.2417 44.8373 17.4324 44.5845 16.5207C44.3498 15.5905 44.2324 14.6231 44.2324 13.6184C44.2324 12.6138 44.3679 11.6649 44.6387 10.7719C44.9277 9.87888 45.343 9.09749 45.8847 8.42772C46.4264 7.75795 47.0946 7.22772 47.8891 6.83702C48.6836 6.44633 49.5956 6.25098 50.6249 6.25098C51.3833 6.25098 52.0875 6.35333 52.7376 6.55795C53.4058 6.74402 53.9926 7.03237 54.4983 7.42307C55.0219 7.81377 55.4463 8.31609 55.7713 8.93005C56.0964 9.52537 56.295 10.223 56.3672 11.0231H55.3379ZM59.3076 13.8975V14.0649C59.3076 14.9021 59.416 15.7022 59.6327 16.4649C59.8493 17.2277 60.1654 17.8975 60.5807 18.4742C61.0141 19.051 61.5468 19.5068 62.1788 19.8417C62.8289 20.1766 63.5783 20.344 64.427 20.344C65.8174 20.344 66.919 19.9719 67.7314 19.2277C68.544 18.465 69.104 17.4138 69.4108 16.0742H70.4401C70.1333 17.7487 69.465 19.0324 68.4357 19.9254C67.4246 20.8184 66.0793 21.2649 64.3999 21.2649C63.3706 21.2649 62.4677 21.0789 61.6912 20.7068C60.9328 20.3161 60.2917 19.7951 59.7681 19.144C59.2624 18.4742 58.8832 17.6928 58.6304 16.7998C58.3777 15.8882 58.2512 14.9114 58.2512 13.8696C58.2512 12.8649 58.3777 11.9068 58.6304 10.9952C58.9013 10.065 59.2986 9.25565 59.8223 8.56726C60.3459 7.8603 60.996 7.30216 61.7725 6.89284C62.567 6.46495 63.497 6.25098 64.5624 6.25098C65.5375 6.25098 66.3953 6.43705 67.1356 6.80912C67.8939 7.18119 68.5264 7.69286 69.0316 8.344C69.5374 8.97658 69.9166 9.72072 70.1692 10.5766C70.4401 11.4138 70.5755 12.3161 70.5755 13.2835C70.5755 13.3765 70.5667 13.4882 70.5484 13.6184C70.5484 13.73 70.5484 13.823 70.5484 13.8975H59.3076ZM69.5191 12.9766C69.4832 12.1952 69.3566 11.4603 69.1399 10.7719C68.9232 10.065 68.5982 9.451 68.1648 8.93005C67.7497 8.39053 67.235 7.96258 66.621 7.64633C66.0251 7.33007 65.3389 7.17191 64.5624 7.17191C63.7317 7.17191 63.0004 7.33935 62.3684 7.67423C61.7364 7.99049 61.2037 8.41844 60.7703 8.95795C60.3369 9.47891 60.0029 10.0929 59.7681 10.7998C59.5333 11.5068 59.3889 12.2323 59.3347 12.9766H69.5191ZM73.3532 13.8975V14.0649C73.3532 14.9021 73.4616 15.7022 73.6783 16.4649C73.895 17.2277 74.2112 17.8975 74.6263 18.4742C75.0597 19.051 75.5926 19.5068 76.2244 19.8417C76.8745 20.1766 77.6241 20.344 78.4726 20.344C79.8635 20.344 80.9646 19.9719 81.7772 19.2277C82.5898 18.465 83.1498 17.4138 83.4566 16.0742H84.4858C84.1791 17.7487 83.5107 19.0324 82.4814 19.9254C81.4704 20.8184 80.1249 21.2649 78.4455 21.2649C77.4162 21.2649 76.5136 21.0789 75.7369 20.7068C74.9784 20.3161 74.3378 19.7951 73.8137 19.144C73.3085 18.4742 72.9293 17.6928 72.6761 16.7998C72.4235 15.8882 72.2969 14.9114 72.2969 13.8696C72.2969 12.8649 72.4235 11.9068 72.6761 10.9952C72.9469 10.065 73.3444 9.25565 73.8679 8.56726C74.392 7.8603 75.0421 7.30216 75.8181 6.89284C76.6131 6.46495 77.5429 6.25098 78.608 6.25098C79.5832 6.25098 80.4411 6.43705 81.1813 6.80912C81.9397 7.18119 82.5722 7.69286 83.0773 8.344C83.5832 8.97658 83.9624 9.72072 84.215 10.5766C84.4858 11.4138 84.6213 12.3161 84.6213 13.2835C84.6213 13.3765 84.6125 13.4882 84.5942 13.6184C84.5942 13.73 84.5942 13.823 84.5942 13.8975H73.3532ZM83.5649 12.9766C83.529 12.1952 83.4024 11.4603 83.1857 10.7719C82.969 10.065 82.6439 9.451 82.2106 8.93005C81.7955 8.39053 81.2808 7.96258 80.6666 7.64633C80.0707 7.33007 79.3848 7.17191 78.608 7.17191C77.7778 7.17191 77.0465 7.33935 76.414 7.67423C75.7822 7.99049 75.2493 8.41844 74.8159 8.95795C74.3825 9.47891 74.0487 10.0929 73.8137 10.7998C73.5794 11.5068 73.4345 12.2323 73.3803 12.9766H83.5649Z" fill="white"/>
</svg>
